<svg width="23" height="36" viewBox="0 0 23 36" fill="none" xmlns="http://www.w3.org/2000/svg">
<g clip-path="url(#clip0_8_16)">
<path d="M11.1952 20.7499C12.6554 20.7499 13.8253 19.2794 13.8253 17.4578L13.8341 10.8737C13.8341 9.05214 12.6554 7.5817 11.1952 7.5817C9.73504 7.5817 8.55635 9.05214 8.55635 10.8737V17.4578C8.55635 19.2794 9.73504 20.7499 11.1952 20.7499ZM15.8572 17.4578C15.8572 20.7499 13.623 23.0543 11.1952 23.0543C8.76746 23.0543 6.53321 20.7499 6.53321 17.4578H5.03784C5.03784 21.1998 7.43042 24.2943 10.3156 24.832V28.4313H12.0749V24.832C14.96 24.3053 17.3526 21.2108 17.3526 17.4578H15.8572Z" fill="#5301C8"/>
</g>
<defs>
<clipPath id="clip0_8_16">
<rect width="23" height="36" fill="white"/>
</clipPath>
</defs>
</svg>
