<svg width="22" height="22" viewBox="0 0 22 22" fill="none" xmlns="http://www.w3.org/2000/svg">
<g clip-path="url(#clip0_8_21)">
<path d="M18.3334 0.916656V3.66666H21.0834V5.49999H18.3334V8.24999H16.5001V5.49999H13.7501V3.66666H16.5001V0.916656H18.3334ZM11.0001 11.9167C12.0084 11.9167 12.8334 11.0917 12.8334 10.0833C12.8334 9.07499 12.0084 8.24999 11.0001 8.24999C9.99175 8.24999 9.16675 9.07499 9.16675 10.0833C9.16675 11.0917 9.99175 11.9167 11.0001 11.9167ZM12.8334 2.97916V6.41666H15.5834V9.16666H18.2601C18.3059 9.52416 18.3334 9.89082 18.3334 10.2667C18.3334 13.31 15.8859 16.9125 11.0001 21.0833C6.11425 16.9125 3.66675 13.31 3.66675 10.2667C3.66675 5.70166 7.15008 2.74999 11.0001 2.74999C11.6234 2.74999 12.2376 2.82332 12.8334 2.97916Z" fill="black"/>
</g>
<defs>
<clipPath id="clip0_8_21">
<rect width="22" height="22" fill="white"/>
</clipPath>
</defs>
</svg>
